<svg preserveAspectRatio="xMidYMid meet" version="1.0" viewBox="138.2 186.4 726.5 626.7" xmlns="http://www.w3.org/2000/svg" xmlns:xlink="http://www.w3.org/1999/xlink" zoomAndPan="magnify" style="fill: rgb(211, 200, 46);" original_string_length="8885"><g><g id="__id118_sqyaxic91"><path d="M659.93,448.28c-13.55-2.53-26.46-1.69-37.33,2.44c-12.6,4.79-22.72,14.4-27.08,25.72c-6.39,16.6-1.12,34.59,3.52,50.47 c0.92,3.16,1.79,6.14,2.59,9.11c0.78,2.94,1.55,5.89,2.32,8.84c2.32,8.88,4.72,18.06,7.46,26.99c3.65,11.89,9.95,26.35,26.4,32.69 c6.45,2.49,13.9,3.71,22.65,3.71c1.63,0,3.3-0.04,5.02-0.13c26.74-1.31,48.76-12.09,60.42-29.59c1.76-2.63,3.32-5.5,4.65-8.5v0 c3.85-8.71,5.86-19.07,5.83-29.96c-0.06-21.44-7.97-43.19-21.7-59.67C700.97,463.92,681.01,452.22,659.93,448.28z M726.9,568.42 c-1.24,2.8-2.69,5.46-4.32,7.9c-10.78,16.19-32.2,26.58-57.28,27.81c-10.41,0.52-18.92-0.57-26.04-3.32 c-11.58-4.47-18.99-13.76-24.02-30.14c-2.72-8.85-5.11-17.99-7.42-26.83c-0.77-2.95-1.54-5.91-2.33-8.85 c-0.81-3.02-1.72-6.17-2.61-9.21c-4.68-16.01-9.52-32.57-3.62-47.91c3.95-10.27,13.21-19.03,24.77-23.42 c6.32-2.4,13.41-3.61,20.94-3.61c4.6,0,9.37,0.45,14.24,1.36c20.18,3.77,39.29,14.98,52.43,30.75 c13.14,15.77,20.71,36.59,20.77,57.12C732.42,550.41,730.52,560.21,726.9,568.42z M712.86,449.02 c-5.18-4.81-10.84-9.24-16.32-13.52c-1.36-1.06-2.72-2.13-4.08-3.2c-1.72-1.36-3.42-2.73-5.12-4.11 c-5.33-4.3-10.83-8.75-16.71-12.57c-15.74-10.22-36.04-17.15-57.16-19.51c-7.83-0.89-15.66-1.09-23.26-0.6 c-14.9,0.96-28.02,4.73-39,11.21c-14.54,8.58-26.57,22.54-33.88,39.31c-10.63,24.45-10.23,49.92-9.85,74.55 c0.03,2.09,0.06,4.18,0.09,6.26c0.3,24.75,4.21,46.32,11.62,64.12c0.58,1.4,1.23,2.87,2.03,4.62 c9.74,21.36,24.37,37.01,42.32,45.26c3.96,1.8,8.2,3.32,12.58,4.5c8.69,2.32,18.27,3.48,28.97,3.48c6.45,0,13.3-0.42,20.61-1.26 c30.02-3.4,59.78-13.16,86.08-28.24c8.85-5.09,16.33-10.45,22.87-16.38c6.75-6.12,11.17-11.68,13.93-17.51 c0.17-0.36,0.34-0.72,0.5-1.09c9.72-22.22,7.5-49.8,2.17-68.2C742.87,487.17,730.31,465.22,712.86,449.02z M745.41,582.75 c-0.14,0.33-0.29,0.65-0.44,0.98c-2.53,5.34-6.66,10.51-13,16.26c-6.33,5.74-13.58,10.93-22.17,15.87 c-25.83,14.81-55.06,24.4-84.54,27.74c-18.94,2.17-34.68,1.48-48.1-2.11c-4.17-1.12-8.2-2.56-11.95-4.28 c-17.06-7.84-31.01-22.81-40.34-43.29c-0.78-1.71-1.41-3.14-1.97-4.5c-7.21-17.33-11.02-38.4-11.32-62.63 c-0.03-2.09-0.06-4.18-0.09-6.27c-0.37-24.21-0.76-49.24,9.52-72.89c6.97-16,18.42-29.3,32.24-37.46 c10.44-6.16,22.96-9.75,37.23-10.67c7.36-0.48,14.95-0.28,22.55,0.58c20.51,2.3,40.2,9,55.42,18.89 c5.71,3.71,11.13,8.09,16.38,12.33c1.71,1.38,3.43,2.77,5.15,4.13c1.36,1.08,2.73,2.15,4.09,3.22 c5.41,4.23,11.01,8.61,16.06,13.31c16.91,15.69,29.1,37.05,37.27,65.31C752.53,534.99,754.7,561.5,745.41,582.75z M714.99,417.74 c-6.05-4.94-12.46-9.63-18.66-14.16c-3.84-2.81-7.82-5.72-11.67-8.66c-3.82-2.92-7.62-6.02-11.29-9.03 c-6.35-5.2-12.92-10.57-19.91-15.22c-22.09-14.67-51.39-24.17-82.48-26.73c-11.05-0.92-22.11-0.85-32.88,0.21 c-21.59,2.13-39.84,8.36-54.23,18.5c-16.26,11.46-29.62,28.79-40.86,53c-13.65,29.44-21.52,60.99-25.55,102.28 c-3.36,34.52,1.52,67.22,14.11,94.56c0.98,2.13,2.05,4.32,3.27,6.68c14.86,28.76,37.93,50.54,64.97,61.31 c5.8,2.3,11.98,4.19,18.36,5.63c10.82,2.42,22.56,3.63,35.43,3.63c11.15,0,23.14-0.91,36.11-2.72 c39.61-5.5,81.06-18.74,123.21-39.35c9.97-4.89,22.9-11.64,34.54-20.57c11.06-8.48,18.6-17.08,23.04-26.29 c0.27-0.56,0.53-1.12,0.78-1.69c13.34-30.41,12.82-73.23-1.29-106.56C757.15,462.2,738.64,437.02,714.99,417.74z M767.63,597.51 c-0.23,0.52-0.47,1.04-0.72,1.56c-4.16,8.63-11.32,16.76-21.87,24.85c-11.36,8.71-24.07,15.34-33.87,20.15 c-41.77,20.43-82.81,33.55-122.01,38.99c-27.47,3.84-50.4,3.56-70.11-0.85c-6.18-1.39-12.15-3.22-17.76-5.44 c-26.13-10.42-48.47-31.52-62.89-59.43c-1.19-2.31-2.24-4.44-3.19-6.52c-12.29-26.7-17.05-58.68-13.76-92.5 c3.98-40.82,11.75-71.97,25.19-100.98c10.93-23.55,23.86-40.36,39.53-51.41c13.82-9.74,31.42-15.73,52.32-17.79 c10.52-1.04,21.34-1.11,32.15-0.21c30.44,2.51,59.06,11.77,80.6,26.08c6.82,4.53,13.31,9.84,19.58,14.98 c3.7,3.03,7.52,6.16,11.4,9.12c3.88,2.96,7.87,5.88,11.73,8.71c6.16,4.51,12.52,9.17,18.49,14.03 c23.14,18.87,41.26,43.52,53.86,73.28C780.03,526.5,780.56,568.05,767.63,597.51z M717.55,386.5 c-6.67-5.01-13.61-9.89-20.33-14.61c-6.59-4.63-13.4-9.42-19.95-14.33c-5.61-4.2-11.12-8.76-16.45-13.17 c-7.7-6.37-15.66-12.96-24.13-18.66c-28.49-19.15-66.76-31.2-107.78-33.94c-14.27-0.96-28.57-0.62-42.49,1.01 c-28.39,3.33-51.75,12-69.43,25.76c-22.1,17.19-36.08,42.23-47.91,66.73c-21.96,45.54-35.08,84.89-41.31,123.83 c-7.02,43.92-1.14,88.26,16.57,124.87c1.42,2.93,2.94,5.87,4.51,8.72c19.99,36.5,51.1,63.99,87.59,77.39 c7.64,2.79,15.77,5.07,24.14,6.76c12.92,2.6,26.82,3.9,41.92,3.9c15.82,0,32.94-1.43,51.59-4.29 c49.07-7.49,100.04-23.54,160.42-50.5c14.6-6.53,31.42-14.37,46.22-24.78c15.18-10.67,25.98-22.45,32.09-35.01 c0.37-0.75,0.72-1.52,1.06-2.29c9.1-20.7,13.6-46.6,12.68-72.94c-0.91-26.12-7.09-51.65-17.41-71.88 C773.37,438.11,749.28,410.33,717.55,386.5z M790.23,612.28c-0.32,0.72-0.65,1.44-0.99,2.14c-5.81,11.94-16.17,23.21-30.79,33.49 c-14.51,10.2-30.46,17.65-45.56,24.4c-60.04,26.81-110.69,42.77-159.39,50.2c-35.98,5.51-66.11,5.65-92.11,0.42 c-8.18-1.65-16.1-3.87-23.55-6.6c-35.58-13.07-65.93-39.9-85.46-75.56c-1.55-2.8-3.03-5.68-4.42-8.54 c-17.36-35.88-23.12-79.38-16.22-122.49c6.17-38.54,19.18-77.54,40.97-122.72c11.61-24.06,25.31-48.62,46.76-65.31 c17.1-13.3,39.79-21.69,67.44-24.94c8.62-1.01,17.39-1.52,26.21-1.52c5.17,0,10.36,0.17,15.54,0.52 c40.32,2.69,77.9,14.51,105.81,33.27c8.31,5.58,16.19,12.11,23.81,18.42c5.37,4.44,10.92,9.03,16.6,13.29 c6.6,4.94,13.43,9.75,20.04,14.4c6.69,4.7,13.6,9.57,20.23,14.54c31.24,23.46,54.94,50.77,70.46,81.18 C806.39,511.63,808.34,571.1,790.23,612.28z M720.16,355.27c-6.66-4.72-13.5-9.4-20.12-13.93c-9.96-6.81-20.26-13.85-30.11-21.15 c-7.32-5.42-14.45-11.37-21.36-17.13c-9.13-7.61-18.57-15.49-28.62-22.29c-34.4-23.29-82.89-38.29-133.05-41.15 c-17.49-1-35.02-0.39-52.1,1.82c-35.23,4.55-63.7,15.66-84.62,33c-25.64,21.26-41.23,52.73-54.99,80.49l-0.77,1.55 c-22.68,45.8-46.14,93.16-56.31,143.86c-10.79,53.74-4.03,108.83,19.03,155.12c1.8,3.62,3.74,7.24,5.75,10.77 c24.88,43.68,65.04,77.75,110.2,93.47c9.49,3.3,19.55,5.96,29.93,7.9c15.01,2.81,31.07,4.22,48.4,4.22 c20.48,0,42.72-1.96,67.08-5.9c73.13-11.79,140.96-37.79,197.66-61.66c17.43-7.34,39.13-16.49,57.91-29 c19.43-12.95,33.26-27.66,41.11-43.72c0.46-0.95,0.91-1.91,1.34-2.88c24.33-55.29,20.9-132.28-8.16-183.05 C790.1,413.67,762.06,384.96,720.16,355.27z M812.88,627.05c-0.4,0.92-0.83,1.83-1.27,2.73c-7.54,15.42-20.91,29.59-39.74,42.14 c-18.46,12.3-39.96,21.36-57.24,28.64c-56.49,23.78-124.03,49.67-196.75,61.4c-44.5,7.19-81.83,7.75-114.11,1.7 c-10.18-1.91-20.05-4.52-29.35-7.75c-44.26-15.41-83.64-48.83-108.04-91.68c-1.98-3.46-3.88-7.02-5.65-10.57 c-22.67-45.49-29.31-99.67-18.69-152.54c10.07-50.19,33.41-97.31,55.97-142.88l0.77-1.55c13.58-27.41,28.97-58.47,53.95-79.18 c20.33-16.85,48.11-27.66,82.58-32.11c16.84-2.17,34.12-2.78,51.36-1.79c49.46,2.82,97.22,17.57,131.04,40.47 c9.88,6.69,19.24,14.5,28.3,22.05c6.95,5.79,14.13,11.78,21.54,17.27c9.91,7.34,20.24,14.41,30.23,21.24 c6.61,4.52,13.44,9.19,20.07,13.89c41.41,29.34,69.07,57.64,87.06,89.06C833.38,497.36,836.73,572.83,812.88,627.05z M858.39,531.25c-1.83-41.25-12.76-79.98-30.78-109.07c-26.66-43.04-68.08-73.22-104.82-98.13c-5.69-3.86-11.49-7.74-17.11-11.49 c-14.28-9.54-29.04-19.41-43.1-29.73c-8.99-6.61-17.72-13.92-26.16-21c-10.59-8.89-21.55-18.07-33.21-26.01 c-40.72-27.71-98.43-45.34-158.32-48.36c-20.71-1.04-41.47-0.16-61.71,2.62c-42.09,5.78-75.67,19.31-99.8,40.23 c-26.28,22.78-42.26,54.69-57.71,85.56c-1.46,2.91-2.91,5.82-4.37,8.71c-5.13,10.16-10.5,20.45-15.7,30.41 c-22.64,43.38-46.05,88.24-57.14,136.6c-7.13,31.07-8.93,62.91-5.36,94.63c3.64,32.28,12.67,62.79,26.85,90.71 c2.19,4.3,4.54,8.61,6.99,12.81c30.05,51.4,78.46,91.33,132.81,109.56c27.2,9.12,56.85,13.66,90.47,13.66 c25.14,0,52.5-2.54,82.7-7.59c77.32-12.93,149.84-38.46,234.92-72.83l0.96-0.39c23.21-9.38,47.21-19.07,68.64-32.84 c24.76-15.91,42.65-35.24,51.74-55.89C853.36,611.25,860.18,571.42,858.39,531.25z M835.53,641.82 c-11.08,25.18-33.44,43.33-50.24,54.13c-21.11,13.56-44.93,23.19-67.97,32.49l-0.96,0.39c-84.84,34.27-157.12,59.73-234.08,72.6 c-69.93,11.69-124.34,9.81-171.24-5.92c-53.44-17.93-101.06-57.21-130.63-107.79c-2.42-4.13-4.73-8.37-6.88-12.61 c-27.61-54.34-35.32-120.91-21.16-182.63c10.98-47.86,34.27-92.49,56.79-135.64c5.2-9.97,10.58-20.28,15.72-30.46 c1.46-2.9,2.92-5.81,4.38-8.72c15.27-30.51,31.07-62.06,56.75-84.32c23.53-20.4,56.41-33.62,97.72-39.29 c19.99-2.75,40.5-3.62,60.96-2.59c59.18,2.98,116.14,20.36,156.27,47.67c11.5,7.82,22.37,16.95,32.89,25.77 c8.49,7.12,17.26,14.48,26.36,21.16c14.13,10.38,28.93,20.27,43.24,29.83c5.61,3.75,11.41,7.62,17.08,11.47 c36.39,24.68,77.41,54.56,103.66,96.93C859.9,481.9,864.76,575.41,835.53,641.82z" style="fill: inherit;"/></g></g></svg>