<?xml version="1.0" encoding="utf-8"?>
<!-- Generated by Mocodo 4.0.2 -->
<svg width="837" height="726" viewBox="0 0 837 726" xmlns="http://www.w3.org/2000/svg">
<rect x="0" y="0" width="837" height="726" fill="#00000000" stroke="none" stroke-width="0"/>

<!-- Association Has_Degree -->
<g>
	<line x1="400" y1="228" x2="224" y2="68" stroke="#4393c3" stroke-width="2"/>
	<line x1="71" y1="68" x2="224" y2="68" stroke="#4393c3" stroke-width="2"/>
	<g>
		<path d="M254 43 a14 14 90 0 1 14 14 V68 h-88 V57 a14 14 90 0 1 14 -14" fill="#92c5de" stroke="#92c5de" stroke-width="0"/>
		<path d="M268 68 v11 a14 14 90 0 1 -14 14 H194 a14 14 90 0 1 -14 -14 V68 H88" fill="#d1e5f0" stroke="#d1e5f0" stroke-width="0"/>
		<rect x="180" y="43" width="88" height="50" fill="none" rx="14" stroke="#4393c3" stroke-width="2"/>
		<line x1="180" y1="68" x2="268" y2="68" stroke="#4393c3" stroke-width="1"/>
		<text x="187" y="60.75" fill="#000000" font-family="Verdana" font-size="12">Has_Degree</text>
	</g>
	<text x="288" y="161.13" fill="#b2182b" font-family="Verdana" font-size="12">0,N</text>
	<text x="138" y="85" fill="#b2182b" font-family="Verdana" font-size="12">1,1</text>
</g>

<!-- Association Has_hobby -->
<g>
	<line x1="400" y1="228" x2="400" y2="68" stroke="#4393c3" stroke-width="2"/>
	<line x1="563" y1="68" x2="400" y2="68" stroke="#4393c3" stroke-width="2"/>
	<g>
		<path d="M427 43 a14 14 90 0 1 14 14 V68 h-82 V57 a14 14 90 0 1 14 -14" fill="#92c5de" stroke="#92c5de" stroke-width="0"/>
		<path d="M441 68 v11 a14 14 90 0 1 -14 14 H373 a14 14 90 0 1 -14 -14 V68 H82" fill="#d1e5f0" stroke="#d1e5f0" stroke-width="0"/>
		<rect x="359" y="43" width="82" height="50" fill="none" rx="14" stroke="#4393c3" stroke-width="2"/>
		<line x1="359" y1="68" x2="441" y2="68" stroke="#4393c3" stroke-width="1"/>
		<text x="366" y="60.75" fill="#000000" font-family="Verdana" font-size="12">Has_hobby</text>
	</g>
	<text x="405" y="110" fill="#b2182b" font-family="Verdana" font-size="12">0,N</text>
	<text x="491" y="85" fill="#b2182b" font-family="Verdana" font-size="12">0,N</text>
</g>

<!-- Association Has_Certification -->
<g>
	<line x1="400" y1="228" x2="224" y2="228" stroke="#4393c3" stroke-width="2"/>
	<line x1="71" y1="228" x2="224" y2="228" stroke="#4393c3" stroke-width="2"/>
	<g>
		<path d="M269 203 a14 14 90 0 1 14 14 V228 h-118 V217 a14 14 90 0 1 14 -14" fill="#92c5de" stroke="#92c5de" stroke-width="0"/>
		<path d="M283 228 v11 a14 14 90 0 1 -14 14 H179 a14 14 90 0 1 -14 -14 V228 H118" fill="#d1e5f0" stroke="#d1e5f0" stroke-width="0"/>
		<rect x="165" y="203" width="118" height="50" fill="none" rx="14" stroke="#4393c3" stroke-width="2"/>
		<line x1="165" y1="228" x2="283" y2="228" stroke="#4393c3" stroke-width="1"/>
		<text x="172" y="220.75" fill="#000000" font-family="Verdana" font-size="12">Has_Certification</text>
	</g>
	<text x="288" y="245" fill="#b2182b" font-family="Verdana" font-size="12">0,N</text>
	<text x="138" y="245" fill="#b2182b" font-family="Verdana" font-size="12">0,N</text>
</g>

<!-- Association Has_Faved -->
<g>
	<line x1="400" y1="228" x2="563" y2="228" stroke="#4393c3" stroke-width="2"/>
	<line x1="727" y1="228" x2="563" y2="228" stroke="#4393c3" stroke-width="2"/>
	<g>
		<path d="M590 203 a14 14 90 0 1 14 14 V228 h-82 V217 a14 14 90 0 1 14 -14" fill="#92c5de" stroke="#92c5de" stroke-width="0"/>
		<path d="M604 228 v11 a14 14 90 0 1 -14 14 H536 a14 14 90 0 1 -14 -14 V228 H82" fill="#d1e5f0" stroke="#d1e5f0" stroke-width="0"/>
		<rect x="522" y="203" width="82" height="50" fill="none" rx="14" stroke="#4393c3" stroke-width="2"/>
		<line x1="522" y1="228" x2="604" y2="228" stroke="#4393c3" stroke-width="1"/>
		<text x="530" y="220.75" fill="#000000" font-family="Verdana" font-size="12">Has_Faved</text>
	</g>
	<text x="490" y="220" fill="#b2182b" font-family="Verdana" font-size="12">0,N</text>
	<text x="614" y="220" fill="#b2182b" font-family="Verdana" font-size="12">0,N</text>
</g>

<!-- Association Speaks_language -->
<g>
	<line x1="400" y1="228" x2="224" y2="388" stroke="#4393c3" stroke-width="2"/>
	<line x1="71" y1="388" x2="224" y2="388" stroke="#4393c3" stroke-width="2"/>
	<g>
		<path d="M271 363 a14 14 90 0 1 14 14 V388 h-122 V377 a14 14 90 0 1 14 -14" fill="#92c5de" stroke="#92c5de" stroke-width="0"/>
		<path d="M285 388 v11 a14 14 90 0 1 -14 14 H177 a14 14 90 0 1 -14 -14 V388 H122" fill="#d1e5f0" stroke="#d1e5f0" stroke-width="0"/>
		<rect x="163" y="363" width="122" height="50" fill="none" rx="14" stroke="#4393c3" stroke-width="2"/>
		<line x1="163" y1="388" x2="285" y2="388" stroke="#4393c3" stroke-width="1"/>
		<text x="171" y="380.75" fill="#000000" font-family="Verdana" font-size="12">Speaks_language</text>
	</g>
	<text x="288" y="303.87" fill="#b2182b" font-family="Verdana" font-size="12">0,N</text>
	<text x="130" y="405" fill="#b2182b" font-family="Verdana" font-size="12">0,N</text>
</g>

<!-- Association Has_Experience -->
<g>
	<line x1="400" y1="228" x2="400" y2="388" stroke="#4393c3" stroke-width="2"/>
	<line x1="400" y1="548" x2="400" y2="388" stroke="#4393c3" stroke-width="2"/>
	<g>
		<path d="M442 363 a14 14 90 0 1 14 14 V388 h-112 V377 a14 14 90 0 1 14 -14" fill="#92c5de" stroke="#92c5de" stroke-width="0"/>
		<path d="M456 388 v11 a14 14 90 0 1 -14 14 H358 a14 14 90 0 1 -14 -14 V388 H112" fill="#d1e5f0" stroke="#d1e5f0" stroke-width="0"/>
		<rect x="344" y="363" width="112" height="50" fill="none" rx="14" stroke="#4393c3" stroke-width="2"/>
		<line x1="344" y1="388" x2="456" y2="388" stroke="#4393c3" stroke-width="1"/>
		<text x="352" y="380.75" fill="#000000" font-family="Verdana" font-size="12">Has_Experience</text>
	</g>
	<text x="405" y="355" fill="#b2182b" font-family="Verdana" font-size="12">0,N</text>
	<text x="405" y="481" fill="#b2182b" font-family="Verdana" font-size="12">1,1</text>
</g>

<!-- Association Has_Applied -->
<g>
	<line x1="400" y1="228" x2="563" y2="388" stroke="#4393c3" stroke-width="2"/>
	<line x1="727" y1="228" x2="563" y2="388" stroke="#4393c3" stroke-width="2"/>
	<g>
		<path d="M594 363 a14 14 90 0 1 14 14 V388 h-90 V377 a14 14 90 0 1 14 -14" fill="#92c5de" stroke="#92c5de" stroke-width="0"/>
		<path d="M608 388 v11 a14 14 90 0 1 -14 14 H532 a14 14 90 0 1 -14 -14 V388 H90" fill="#d1e5f0" stroke="#d1e5f0" stroke-width="0"/>
		<rect x="518" y="363" width="90" height="50" fill="none" rx="14" stroke="#4393c3" stroke-width="2"/>
		<line x1="518" y1="388" x2="608" y2="388" stroke="#4393c3" stroke-width="1"/>
		<text x="525" y="380.75" fill="#000000" font-family="Verdana" font-size="12">Has_Applied</text>
	</g>
	<text x="490" y="310.41" fill="#b2182b" font-family="Verdana" font-size="12">0,N</text>
	<text x="614" y="310.85" fill="#b2182b" font-family="Verdana" font-size="12">0,N</text>
</g>

<!-- Association Published_By -->
<g>
	<line x1="727" y1="548" x2="727" y2="388" stroke="#4393c3" stroke-width="2"/>
	<line x1="727" y1="228" x2="727" y2="388" stroke="#4393c3" stroke-width="2"/>
	<g>
		<path d="M761 363 a14 14 90 0 1 14 14 V388 h-96 V377 a14 14 90 0 1 14 -14" fill="#92c5de" stroke="#92c5de" stroke-width="0"/>
		<path d="M775 388 v11 a14 14 90 0 1 -14 14 H693 a14 14 90 0 1 -14 -14 V388 H96" fill="#d1e5f0" stroke="#d1e5f0" stroke-width="0"/>
		<rect x="679" y="363" width="96" height="50" fill="none" rx="14" stroke="#4393c3" stroke-width="2"/>
		<line x1="679" y1="388" x2="775" y2="388" stroke="#4393c3" stroke-width="1"/>
		<text x="687" y="380.75" fill="#000000" font-family="Verdana" font-size="12">Published_By</text>
	</g>
	<text x="732" y="430" fill="#b2182b" font-family="Verdana" font-size="12">0,N</text>
	<text x="732" y="330" fill="#b2182b" font-family="Verdana" font-size="12">1,1</text>
</g>

<!-- Association Used_Tool -->
<g>
	<line x1="400" y1="548" x2="224" y2="548" stroke="#4393c3" stroke-width="2"/>
	<line x1="71" y1="548" x2="224" y2="548" stroke="#4393c3" stroke-width="2"/>
	<g>
		<path d="M249 523 a14 14 90 0 1 14 14 V548 h-78 V537 a14 14 90 0 1 14 -14" fill="#92c5de" stroke="#92c5de" stroke-width="0"/>
		<path d="M263 548 v11 a14 14 90 0 1 -14 14 H199 a14 14 90 0 1 -14 -14 V548 H78" fill="#d1e5f0" stroke="#d1e5f0" stroke-width="0"/>
		<rect x="185" y="523" width="78" height="50" fill="none" rx="14" stroke="#4393c3" stroke-width="2"/>
		<line x1="185" y1="548" x2="263" y2="548" stroke="#4393c3" stroke-width="1"/>
		<text x="192" y="540.75" fill="#000000" font-family="Verdana" font-size="12">Used_Tool</text>
	</g>
	<text x="273" y="565" fill="#b2182b" font-family="Verdana" font-size="12">0,N</text>
	<text x="114" y="565" fill="#b2182b" font-family="Verdana" font-size="12">0,N</text>
</g>

<!-- Association Was_At -->
<g>
	<line x1="727" y1="548" x2="563" y2="548" stroke="#4393c3" stroke-width="2"/>
	<line x1="400" y1="548" x2="563" y2="548" stroke="#4393c3" stroke-width="2"/>
	<g>
		<path d="M580 523 a14 14 90 0 1 14 14 V548 h-62 V537 a14 14 90 0 1 14 -14" fill="#92c5de" stroke="#92c5de" stroke-width="0"/>
		<path d="M594 548 v11 a14 14 90 0 1 -14 14 H546 a14 14 90 0 1 -14 -14 V548 H62" fill="#d1e5f0" stroke="#d1e5f0" stroke-width="0"/>
		<rect x="532" y="523" width="62" height="50" fill="none" rx="14" stroke="#4393c3" stroke-width="2"/>
		<line x1="532" y1="548" x2="594" y2="548" stroke="#4393c3" stroke-width="1"/>
		<text x="540" y="540.75" fill="#000000" font-family="Verdana" font-size="12">Was_At</text>
	</g>
	<text x="599" y="565" fill="#b2182b" font-family="Verdana" font-size="12">0,N</text>
	<text x="505" y="565" fill="#b2182b" font-family="Verdana" font-size="12">1,1</text>
</g>

<!-- Association Used_Skill -->
<g>
	<line x1="400" y1="548" x2="400" y2="683" stroke="#4393c3" stroke-width="2"/>
	<line x1="224" y1="683" x2="400" y2="683" stroke="#4393c3" stroke-width="2"/>
	<g>
		<path d="M425 658 a14 14 90 0 1 14 14 V683 h-78 V672 a14 14 90 0 1 14 -14" fill="#92c5de" stroke="#92c5de" stroke-width="0"/>
		<path d="M439 683 v11 a14 14 90 0 1 -14 14 H375 a14 14 90 0 1 -14 -14 V683 H78" fill="#d1e5f0" stroke="#d1e5f0" stroke-width="0"/>
		<rect x="361" y="658" width="78" height="50" fill="none" rx="14" stroke="#4393c3" stroke-width="2"/>
		<line x1="361" y1="683" x2="439" y2="683" stroke="#4393c3" stroke-width="1"/>
		<text x="369" y="675.75" fill="#000000" font-family="Verdana" font-size="12">Used_Skill</text>
	</g>
	<text x="405" y="624" fill="#b2182b" font-family="Verdana" font-size="12">0,N</text>
	<text x="292" y="700" fill="#b2182b" font-family="Verdana" font-size="12">0,N</text>
</g>

<!-- Entity DEGREE -->
<g>
	<g>
		<rect x="9" y="9" width="124" height="25" fill="#f4a582" stroke="none" stroke-width="0" opacity="1"/>
		<rect x="9" y="34" width="124" height="93" fill="#fddbc7" stroke="none" stroke-width="0" opacity="1"/>
		<rect x="9" y="9" width="124" height="118" fill="none" stroke="#d6604d" stroke-width="2" opacity="1"/>
		<line x1="9" y1="34" x2="133" y2="34" stroke="#d6604d" stroke-width="1"/>
	</g>
	<text x="46" y="26.75" fill="#000000" font-family="Verdana" font-size="12">DEGREE</text>
	<text x="14" y="51.8" fill="#000000" font-family="Verdana" font-size="12">degree_id</text>
	<line x1="14" y1="54" x2="75" y2="54" stroke="#000000" stroke-width="1"/>
	<text x="14" y="68.8" fill="#000000" font-family="Verdana" font-size="12">degree_name</text>
	<text x="14" y="85.8" fill="#000000" font-family="Verdana" font-size="12">degree_school</text>
	<text x="14" y="102.8" fill="#000000" font-family="Verdana" font-size="12">degree_start_date</text>
	<text x="14" y="119.8" fill="#000000" font-family="Verdana" font-size="12">degree_end_date</text>
</g>

<!-- Entity HOBBY -->
<g>
	<g>
		<rect x="518" y="34" width="90" height="25" fill="#f4a582" stroke="none" stroke-width="0" opacity="1"/>
		<rect x="518" y="59" width="90" height="43" fill="#fddbc7" stroke="none" stroke-width="0" opacity="1"/>
		<rect x="518" y="34" width="90" height="68" fill="none" stroke="#d6604d" stroke-width="2" opacity="1"/>
		<line x1="518" y1="59" x2="608" y2="59" stroke="#d6604d" stroke-width="1"/>
	</g>
	<text x="542" y="51.75" fill="#000000" font-family="Verdana" font-size="12">HOBBY</text>
	<text x="523" y="76.8" fill="#000000" font-family="Verdana" font-size="12">hobby_name</text>
	<line x1="523" y1="79" x2="602" y2="79" stroke="#000000" stroke-width="1"/>
	<text x="523" y="93.8" fill="#000000" font-family="Verdana" font-size="12">hobby_about</text>
</g>

<!-- Entity CERTIFICATION -->
<g>
	<g>
		<rect x="9" y="194" width="124" height="25" fill="#f4a582" stroke="none" stroke-width="0" opacity="1"/>
		<rect x="9" y="219" width="124" height="43" fill="#fddbc7" stroke="none" stroke-width="0" opacity="1"/>
		<rect x="9" y="194" width="124" height="68" fill="none" stroke="#d6604d" stroke-width="2" opacity="1"/>
		<line x1="9" y1="219" x2="133" y2="219" stroke="#d6604d" stroke-width="1"/>
	</g>
	<text x="23" y="211.75" fill="#000000" font-family="Verdana" font-size="12">CERTIFICATION</text>
	<text x="14" y="236.8" fill="#000000" font-family="Verdana" font-size="12">certification_name</text>
	<line x1="14" y1="239" x2="127" y2="239" stroke="#000000" stroke-width="1"/>
	<text x="14" y="253.8" fill="#000000" font-family="Verdana" font-size="12">certification_icon</text>
</g>

<!-- Entity CANDIDAT -->
<g>
	<g>
		<rect x="315" y="118" width="170" height="25" fill="#f4a582" stroke="none" stroke-width="0" opacity="1"/>
		<rect x="315" y="143" width="170" height="195" fill="#fddbc7" stroke="none" stroke-width="0" opacity="1"/>
		<rect x="315" y="118" width="170" height="220" fill="none" stroke="#d6604d" stroke-width="2" opacity="1"/>
		<line x1="315" y1="143" x2="485" y2="143" stroke="#d6604d" stroke-width="1"/>
	</g>
	<text x="367" y="135.75" fill="#000000" font-family="Verdana" font-size="12">CANDIDAT</text>
	<text x="320" y="160.8" fill="#000000" font-family="Verdana" font-size="12">candidate_id</text>
	<line x1="320" y1="163" x2="398" y2="163" stroke="#000000" stroke-width="1"/>
	<text x="320" y="177.8" fill="#000000" font-family="Verdana" font-size="12">candidate_first_name</text>
	<text x="320" y="194.8" fill="#000000" font-family="Verdana" font-size="12">candidate_last_name</text>
	<text x="320" y="211.8" fill="#000000" font-family="Verdana" font-size="12">candidate_sex</text>
	<text x="320" y="228.8" fill="#000000" font-family="Verdana" font-size="12">candidate_email</text>
	<text x="320" y="245.8" fill="#000000" font-family="Verdana" font-size="12">candidate_phone_number</text>
	<text x="320" y="262.8" fill="#000000" font-family="Verdana" font-size="12">candidate_localisation</text>
	<text x="320" y="279.8" fill="#000000" font-family="Verdana" font-size="12">candidate_about</text>
	<text x="320" y="296.8" fill="#000000" font-family="Verdana" font-size="12">candidate_profile_picture</text>
	<text x="320" y="313.8" fill="#000000" font-family="Verdana" font-size="12">candidate_cover_picture</text>
	<text x="320" y="330.8" fill="#000000" font-family="Verdana" font-size="12">candidate_status</text>
</g>

<!-- Entity JOB_OFFER -->
<g>
	<g>
		<rect x="641" y="143" width="172" height="25" fill="#f4a582" stroke="none" stroke-width="0" opacity="1"/>
		<rect x="641" y="168" width="172" height="145" fill="#fddbc7" stroke="none" stroke-width="0" opacity="1"/>
		<rect x="641" y="143" width="172" height="170" fill="none" stroke="#d6604d" stroke-width="2" opacity="1"/>
		<line x1="641" y1="168" x2="813" y2="168" stroke="#d6604d" stroke-width="1"/>
	</g>
	<text x="692" y="160.75" fill="#000000" font-family="Verdana" font-size="12">JOB_OFFER</text>
	<text x="646" y="185.8" fill="#000000" font-family="Verdana" font-size="12">offer_id</text>
	<line x1="646" y1="188" x2="693" y2="188" stroke="#000000" stroke-width="1"/>
	<text x="646" y="202.8" fill="#000000" font-family="Verdana" font-size="12">offer_title</text>
	<text x="646" y="219.8" fill="#000000" font-family="Verdana" font-size="12">offer_contract_length</text>
	<text x="646" y="236.8" fill="#000000" font-family="Verdana" font-size="12">offer_publication_date</text>
	<text x="646" y="253.8" fill="#000000" font-family="Verdana" font-size="12">offer_about</text>
	<text x="646" y="270.8" fill="#000000" font-family="Verdana" font-size="12">offer_expected_work</text>
	<text x="646" y="287.8" fill="#000000" font-family="Verdana" font-size="12">offer_annual_salary</text>
	<text x="646" y="304.8" fill="#000000" font-family="Verdana" font-size="12">offer_studies_requirement</text>
</g>

<!-- Entity LANGUAGE -->
<g>
	<g>
		<rect x="17" y="354" width="108" height="25" fill="#f4a582" stroke="none" stroke-width="0" opacity="1"/>
		<rect x="17" y="379" width="108" height="43" fill="#fddbc7" stroke="none" stroke-width="0" opacity="1"/>
		<rect x="17" y="354" width="108" height="68" fill="none" stroke="#d6604d" stroke-width="2" opacity="1"/>
		<line x1="17" y1="379" x2="125" y2="379" stroke="#d6604d" stroke-width="1"/>
	</g>
	<text x="37" y="371.75" fill="#000000" font-family="Verdana" font-size="12">LANGUAGE</text>
	<text x="22" y="396.8" fill="#000000" font-family="Verdana" font-size="12">language_name</text>
	<line x1="22" y1="399" x2="119" y2="399" stroke="#000000" stroke-width="1"/>
	<text x="22" y="413.8" fill="#000000" font-family="Verdana" font-size="12">language_level</text>
</g>

<!-- Entity TOOL -->
<g>
	<g>
		<rect x="33" y="514" width="76" height="25" fill="#f4a582" stroke="none" stroke-width="0" opacity="1"/>
		<rect x="33" y="539" width="76" height="43" fill="#fddbc7" stroke="none" stroke-width="0" opacity="1"/>
		<rect x="33" y="514" width="76" height="68" fill="none" stroke="#d6604d" stroke-width="2" opacity="1"/>
		<line x1="33" y1="539" x2="109" y2="539" stroke="#d6604d" stroke-width="1"/>
	</g>
	<text x="54" y="531.75" fill="#000000" font-family="Verdana" font-size="12">TOOL</text>
	<text x="38" y="556.8" fill="#000000" font-family="Verdana" font-size="12">tool_name</text>
	<line x1="38" y1="559" x2="103" y2="559" stroke="#000000" stroke-width="1"/>
	<text x="38" y="573.8" fill="#000000" font-family="Verdana" font-size="12">tool_icon</text>
</g>

<!-- Entity PROFESSIONNAL_EXPERIENCE -->
<g>
	<g>
		<rect x="300" y="489" width="200" height="25" fill="#f4a582" stroke="none" stroke-width="0" opacity="1"/>
		<rect x="300" y="514" width="200" height="93" fill="#fddbc7" stroke="none" stroke-width="0" opacity="1"/>
		<rect x="300" y="489" width="200" height="118" fill="none" stroke="#d6604d" stroke-width="2" opacity="1"/>
		<line x1="300" y1="514" x2="500" y2="514" stroke="#d6604d" stroke-width="1"/>
	</g>
	<text x="306" y="506.75" fill="#000000" font-family="Verdana" font-size="12">PROFESSIONNAL_EXPERIENCE</text>
	<text x="305" y="531.8" fill="#000000" font-family="Verdana" font-size="12">experience_id</text>
	<line x1="305" y1="534" x2="390" y2="534" stroke="#000000" stroke-width="1"/>
	<text x="305" y="548.8" fill="#000000" font-family="Verdana" font-size="12">experience_start_date</text>
	<text x="305" y="565.8" fill="#000000" font-family="Verdana" font-size="12">experience_end_date</text>
	<text x="305" y="582.8" fill="#000000" font-family="Verdana" font-size="12">experience_job_title</text>
	<text x="305" y="599.8" fill="#000000" font-family="Verdana" font-size="12">experience_description</text>
</g>

<!-- Entity ENTREPRISE -->
<g>
	<g>
		<rect x="626" y="438" width="202" height="25" fill="#f4a582" stroke="none" stroke-width="0" opacity="1"/>
		<rect x="626" y="463" width="202" height="195" fill="#fddbc7" stroke="none" stroke-width="0" opacity="1"/>
		<rect x="626" y="438" width="202" height="220" fill="none" stroke="#d6604d" stroke-width="2" opacity="1"/>
		<line x1="626" y1="463" x2="828" y2="463" stroke="#d6604d" stroke-width="1"/>
	</g>
	<text x="689" y="455.75" fill="#000000" font-family="Verdana" font-size="12">ENTREPRISE</text>
	<text x="631" y="480.8" fill="#000000" font-family="Verdana" font-size="12">entreprise_id</text>
	<line x1="631" y1="483" x2="712" y2="483" stroke="#000000" stroke-width="1"/>
	<text x="631" y="497.8" fill="#000000" font-family="Verdana" font-size="12">entreprise_name</text>
	<text x="631" y="514.8" fill="#000000" font-family="Verdana" font-size="12">entreprise_field</text>
	<text x="631" y="531.8" fill="#000000" font-family="Verdana" font-size="12">entreprise_about</text>
	<text x="631" y="548.8" fill="#000000" font-family="Verdana" font-size="12">entreprise_number_of_workers</text>
	<text x="631" y="565.8" fill="#000000" font-family="Verdana" font-size="12">entreprise_date_of_creation</text>
	<text x="631" y="582.8" fill="#000000" font-family="Verdana" font-size="12">entreprise_localisation</text>
	<text x="631" y="599.8" fill="#000000" font-family="Verdana" font-size="12">entreprise_desired_profiles</text>
	<text x="631" y="616.8" fill="#000000" font-family="Verdana" font-size="12">entreprise_average_age</text>
	<text x="631" y="633.8" fill="#000000" font-family="Verdana" font-size="12">entreprise_profile_picture</text>
	<text x="631" y="650.8" fill="#000000" font-family="Verdana" font-size="12">entreprise_cover_picture</text>
</g>

<!-- Entity COMPETENCE -->
<g>
	<g>
		<rect x="161" y="649" width="126" height="25" fill="#f4a582" stroke="none" stroke-width="0" opacity="1"/>
		<rect x="161" y="674" width="126" height="43" fill="#fddbc7" stroke="none" stroke-width="0" opacity="1"/>
		<rect x="161" y="649" width="126" height="68" fill="none" stroke="#d6604d" stroke-width="2" opacity="1"/>
		<line x1="161" y1="674" x2="287" y2="674" stroke="#d6604d" stroke-width="1"/>
	</g>
	<text x="182" y="666.75" fill="#000000" font-family="Verdana" font-size="12">COMPETENCE</text>
	<text x="166" y="691.8" fill="#000000" font-family="Verdana" font-size="12">competence_name</text>
	<line x1="166" y1="694" x2="281" y2="694" stroke="#000000" stroke-width="1"/>
	<text x="166" y="708.8" fill="#000000" font-family="Verdana" font-size="12">competence_icon</text>
</g>
</svg>