<?xml version="1.0" encoding="utf-8"?>
<!-- Generated by Mocodo 4.0.2 -->
<svg width="969" height="576" viewBox="0 0 969 576" xmlns="http://www.w3.org/2000/svg">
<rect x="0" y="0" width="969" height="576" fill="#00000000" stroke="none" stroke-width="0"/>

<!-- Association Has_Faved -->
<g>
	<line x1="232" y1="339" x2="232" y2="119" stroke="#4393c3" stroke-width="2"/>
	<line x1="394" y1="119" x2="232" y2="119" stroke="#4393c3" stroke-width="2"/>
	<g>
		<path d="M259 94 a14 14 90 0 1 14 14 V119 h-82 V108 a14 14 90 0 1 14 -14" fill="#92c5de" stroke="#92c5de" stroke-width="0"/>
		<path d="M273 119 v11 a14 14 90 0 1 -14 14 H205 a14 14 90 0 1 -14 -14 V119 H82" fill="#d1e5f0" stroke="#d1e5f0" stroke-width="0"/>
		<rect x="191" y="94" width="82" height="50" fill="none" rx="14" stroke="#4393c3" stroke-width="2"/>
		<line x1="191" y1="119" x2="273" y2="119" stroke="#4393c3" stroke-width="1"/>
		<text x="199" y="111.75" fill="#000000" font-family="Verdana" font-size="12">Has_Faved</text>
	</g>
	<text x="237" y="221" fill="#b2182b" font-family="Verdana" font-size="12">0,N</text>
	<text x="281" y="136" fill="#b2182b" font-family="Verdana" font-size="12">0,N</text>
</g>

<!-- Association Published_By -->
<g>
	<line x1="763" y1="119" x2="582" y2="119" stroke="#4393c3" stroke-width="2"/>
	<line x1="394" y1="119" x2="582" y2="119" stroke="#4393c3" stroke-width="2"/>
	<g>
		<path d="M616 94 a14 14 90 0 1 14 14 V119 h-96 V108 a14 14 90 0 1 14 -14" fill="#92c5de" stroke="#92c5de" stroke-width="0"/>
		<path d="M630 119 v11 a14 14 90 0 1 -14 14 H548 a14 14 90 0 1 -14 -14 V119 H96" fill="#d1e5f0" stroke="#d1e5f0" stroke-width="0"/>
		<rect x="534" y="94" width="96" height="50" fill="none" rx="14" stroke="#4393c3" stroke-width="2"/>
		<line x1="534" y1="119" x2="630" y2="119" stroke="#4393c3" stroke-width="1"/>
		<text x="542" y="111.75" fill="#000000" font-family="Verdana" font-size="12">Published_By</text>
	</g>
	<text x="635" y="111" fill="#b2182b" font-family="Verdana" font-size="12">0,N</text>
	<text x="485" y="136" fill="#b2182b" font-family="Verdana" font-size="12">1,1</text>
</g>

<!-- Association Has_Degree -->
<g>
	<line x1="232" y1="339" x2="71" y2="339" stroke="#4393c3" stroke-width="2"/>
	<line x1="71" y1="119" x2="71" y2="339" stroke="#4393c3" stroke-width="2"/>
	<g>
		<path d="M101 314 a14 14 90 0 1 14 14 V339 h-88 V328 a14 14 90 0 1 14 -14" fill="#92c5de" stroke="#92c5de" stroke-width="0"/>
		<path d="M115 339 v11 a14 14 90 0 1 -14 14 H41 a14 14 90 0 1 -14 -14 V339 H88" fill="#d1e5f0" stroke="#d1e5f0" stroke-width="0"/>
		<rect x="27" y="314" width="88" height="50" fill="none" rx="14" stroke="#4393c3" stroke-width="2"/>
		<line x1="27" y1="339" x2="115" y2="339" stroke="#4393c3" stroke-width="1"/>
		<text x="34" y="331.75" fill="#000000" font-family="Verdana" font-size="12">Has_Degree</text>
	</g>
	<text x="120" y="356" fill="#b2182b" font-family="Verdana" font-size="12">0,N</text>
	<text x="76" y="195" fill="#b2182b" font-family="Verdana" font-size="12">1,1</text>
</g>

<!-- Association Has_Applied -->
<g>
	<line x1="232" y1="339" x2="394" y2="339" stroke="#4393c3" stroke-width="2"/>
	<line x1="394" y1="119" x2="394" y2="339" stroke="#4393c3" stroke-width="2"/>
	<g>
		<path d="M425 314 a14 14 90 0 1 14 14 V339 h-90 V328 a14 14 90 0 1 14 -14" fill="#92c5de" stroke="#92c5de" stroke-width="0"/>
		<path d="M439 339 v11 a14 14 90 0 1 -14 14 H363 a14 14 90 0 1 -14 -14 V339 H90" fill="#d1e5f0" stroke="#d1e5f0" stroke-width="0"/>
		<rect x="349" y="314" width="90" height="50" fill="none" rx="14" stroke="#4393c3" stroke-width="2"/>
		<line x1="349" y1="339" x2="439" y2="339" stroke="#4393c3" stroke-width="1"/>
		<text x="356" y="331.75" fill="#000000" font-family="Verdana" font-size="12">Has_Applied</text>
	</g>
	<text x="322" y="331" fill="#b2182b" font-family="Verdana" font-size="12">0,N</text>
	<text x="399" y="221" fill="#b2182b" font-family="Verdana" font-size="12">0,N</text>
</g>

<!-- Association Was_At -->
<g>
	<line x1="763" y1="119" x2="582" y2="339" stroke="#4393c3" stroke-width="2"/>
	<line x1="582" y1="508" x2="582" y2="339" stroke="#4393c3" stroke-width="2"/>
	<g>
		<path d="M599 314 a14 14 90 0 1 14 14 V339 h-62 V328 a14 14 90 0 1 14 -14" fill="#92c5de" stroke="#92c5de" stroke-width="0"/>
		<path d="M613 339 v11 a14 14 90 0 1 -14 14 H565 a14 14 90 0 1 -14 -14 V339 H62" fill="#d1e5f0" stroke="#d1e5f0" stroke-width="0"/>
		<rect x="551" y="314" width="62" height="50" fill="none" rx="14" stroke="#4393c3" stroke-width="2"/>
		<line x1="551" y1="339" x2="613" y2="339" stroke="#4393c3" stroke-width="1"/>
		<text x="559" y="331.75" fill="#000000" font-family="Verdana" font-size="12">Was_At</text>
	</g>
	<text x="671.4" y="246" fill="#b2182b" font-family="Verdana" font-size="12">0,N</text>
	<text x="556" y="441" fill="#b2182b" font-family="Verdana" font-size="12">1,1</text>
</g>

<!-- Association Used_Skill -->
<g>
	<line x1="582" y1="508" x2="763" y2="339" stroke="#4393c3" stroke-width="2"/>
	<line x1="897" y1="339" x2="763" y2="339" stroke="#4393c3" stroke-width="2"/>
	<g>
		<path d="M788 314 a14 14 90 0 1 14 14 V339 h-78 V328 a14 14 90 0 1 14 -14" fill="#92c5de" stroke="#92c5de" stroke-width="0"/>
		<path d="M802 339 v11 a14 14 90 0 1 -14 14 H738 a14 14 90 0 1 -14 -14 V339 H78" fill="#d1e5f0" stroke="#d1e5f0" stroke-width="0"/>
		<rect x="724" y="314" width="78" height="50" fill="none" rx="14" stroke="#4393c3" stroke-width="2"/>
		<line x1="724" y1="339" x2="802" y2="339" stroke="#4393c3" stroke-width="1"/>
		<text x="732" y="331.75" fill="#000000" font-family="Verdana" font-size="12">Used_Skill</text>
	</g>
	<text x="624.92" y="441" fill="#b2182b" font-family="Verdana" font-size="12">0,N</text>
	<text x="807" y="356" fill="#b2182b" font-family="Verdana" font-size="12">0,N</text>
</g>

<!-- Association Has_Certification -->
<g>
	<line x1="232" y1="339" x2="232" y2="508" stroke="#4393c3" stroke-width="2"/>
	<line x1="71" y1="508" x2="232" y2="508" stroke="#4393c3" stroke-width="2"/>
	<g>
		<path d="M277 483 a14 14 90 0 1 14 14 V508 h-118 V497 a14 14 90 0 1 14 -14" fill="#92c5de" stroke="#92c5de" stroke-width="0"/>
		<path d="M291 508 v11 a14 14 90 0 1 -14 14 H187 a14 14 90 0 1 -14 -14 V508 H118" fill="#d1e5f0" stroke="#d1e5f0" stroke-width="0"/>
		<rect x="173" y="483" width="118" height="50" fill="none" rx="14" stroke="#4393c3" stroke-width="2"/>
		<line x1="173" y1="508" x2="291" y2="508" stroke="#4393c3" stroke-width="1"/>
		<text x="180" y="500.75" fill="#000000" font-family="Verdana" font-size="12">Has_Certification</text>
	</g>
	<text x="205" y="466" fill="#b2182b" font-family="Verdana" font-size="12">0,N</text>
	<text x="138" y="525" fill="#b2182b" font-family="Verdana" font-size="12">0,N</text>
</g>

<!-- Association Has_Experience -->
<g>
	<line x1="232" y1="339" x2="394" y2="508" stroke="#4393c3" stroke-width="2"/>
	<line x1="582" y1="508" x2="394" y2="508" stroke="#4393c3" stroke-width="2"/>
	<g>
		<path d="M436 483 a14 14 90 0 1 14 14 V508 h-112 V497 a14 14 90 0 1 14 -14" fill="#92c5de" stroke="#92c5de" stroke-width="0"/>
		<path d="M450 508 v11 a14 14 90 0 1 -14 14 H352 a14 14 90 0 1 -14 -14 V508 H112" fill="#d1e5f0" stroke="#d1e5f0" stroke-width="0"/>
		<rect x="338" y="483" width="112" height="50" fill="none" rx="14" stroke="#4393c3" stroke-width="2"/>
		<line x1="338" y1="508" x2="450" y2="508" stroke="#4393c3" stroke-width="1"/>
		<text x="346" y="500.75" fill="#000000" font-family="Verdana" font-size="12">Has_Experience</text>
	</g>
	<text x="322" y="426.53" fill="#b2182b" font-family="Verdana" font-size="12">0,N</text>
	<text x="456" y="525" fill="#b2182b" font-family="Verdana" font-size="12">1,1</text>
</g>

<!-- Association Used_Tool -->
<g>
	<line x1="582" y1="508" x2="763" y2="508" stroke="#4393c3" stroke-width="2"/>
	<line x1="897" y1="508" x2="763" y2="508" stroke="#4393c3" stroke-width="2"/>
	<g>
		<path d="M788 483 a14 14 90 0 1 14 14 V508 h-78 V497 a14 14 90 0 1 14 -14" fill="#92c5de" stroke="#92c5de" stroke-width="0"/>
		<path d="M802 508 v11 a14 14 90 0 1 -14 14 H738 a14 14 90 0 1 -14 -14 V508 H78" fill="#d1e5f0" stroke="#d1e5f0" stroke-width="0"/>
		<rect x="724" y="483" width="78" height="50" fill="none" rx="14" stroke="#4393c3" stroke-width="2"/>
		<line x1="724" y1="508" x2="802" y2="508" stroke="#4393c3" stroke-width="1"/>
		<text x="731" y="500.75" fill="#000000" font-family="Verdana" font-size="12">Used_Tool</text>
	</g>
	<text x="687" y="525" fill="#b2182b" font-family="Verdana" font-size="12">0,N</text>
	<text x="832" y="525" fill="#b2182b" font-family="Verdana" font-size="12">0,N</text>
</g>

<!-- Entity DEGREE -->
<g>
	<g>
		<rect x="9" y="60" width="124" height="25" fill="#f4a582" stroke="none" stroke-width="0" opacity="1"/>
		<rect x="9" y="85" width="124" height="93" fill="#fddbc7" stroke="none" stroke-width="0" opacity="1"/>
		<rect x="9" y="60" width="124" height="118" fill="none" stroke="#d6604d" stroke-width="2" opacity="1"/>
		<line x1="9" y1="85" x2="133" y2="85" stroke="#d6604d" stroke-width="1"/>
	</g>
	<text x="46" y="77.75" fill="#000000" font-family="Verdana" font-size="12">DEGREE</text>
	<text x="14" y="102.8" fill="#000000" font-family="Verdana" font-size="12">degree_id</text>
	<line x1="14" y1="105" x2="75" y2="105" stroke="#000000" stroke-width="1"/>
	<text x="14" y="119.8" fill="#000000" font-family="Verdana" font-size="12">degree_name</text>
	<text x="14" y="136.8" fill="#000000" font-family="Verdana" font-size="12">degree_school</text>
	<text x="14" y="153.8" fill="#000000" font-family="Verdana" font-size="12">degree_start_date</text>
	<text x="14" y="170.8" fill="#000000" font-family="Verdana" font-size="12">degree_end_date</text>
</g>

<!-- Entity JOB_OFFER -->
<g>
	<g>
		<rect x="308" y="34" width="172" height="25" fill="#f4a582" stroke="none" stroke-width="0" opacity="1"/>
		<rect x="308" y="59" width="172" height="145" fill="#fddbc7" stroke="none" stroke-width="0" opacity="1"/>
		<rect x="308" y="34" width="172" height="170" fill="none" stroke="#d6604d" stroke-width="2" opacity="1"/>
		<line x1="308" y1="59" x2="480" y2="59" stroke="#d6604d" stroke-width="1"/>
	</g>
	<text x="359" y="51.75" fill="#000000" font-family="Verdana" font-size="12">JOB_OFFER</text>
	<text x="313" y="76.8" fill="#000000" font-family="Verdana" font-size="12">offer_id</text>
	<line x1="313" y1="79" x2="360" y2="79" stroke="#000000" stroke-width="1"/>
	<text x="313" y="93.8" fill="#000000" font-family="Verdana" font-size="12">offer_title</text>
	<text x="313" y="110.8" fill="#000000" font-family="Verdana" font-size="12">offer_contract_length</text>
	<text x="313" y="127.8" fill="#000000" font-family="Verdana" font-size="12">offer_publication_date</text>
	<text x="313" y="144.8" fill="#000000" font-family="Verdana" font-size="12">offer_about</text>
	<text x="313" y="161.8" fill="#000000" font-family="Verdana" font-size="12">offer_expected_work</text>
	<text x="313" y="178.8" fill="#000000" font-family="Verdana" font-size="12">offer_annual_salary</text>
	<text x="313" y="195.8" fill="#000000" font-family="Verdana" font-size="12">offer_studies_requirement</text>
</g>

<!-- Entity ENTREPRISE -->
<g>
	<g>
		<rect x="662" y="9" width="202" height="25" fill="#f4a582" stroke="none" stroke-width="0" opacity="1"/>
		<rect x="662" y="34" width="202" height="195" fill="#fddbc7" stroke="none" stroke-width="0" opacity="1"/>
		<rect x="662" y="9" width="202" height="220" fill="none" stroke="#d6604d" stroke-width="2" opacity="1"/>
		<line x1="662" y1="34" x2="864" y2="34" stroke="#d6604d" stroke-width="1"/>
	</g>
	<text x="725" y="26.75" fill="#000000" font-family="Verdana" font-size="12">ENTREPRISE</text>
	<text x="667" y="51.8" fill="#000000" font-family="Verdana" font-size="12">entreprise_id</text>
	<line x1="667" y1="54" x2="748" y2="54" stroke="#000000" stroke-width="1"/>
	<text x="667" y="68.8" fill="#000000" font-family="Verdana" font-size="12">entreprise_name</text>
	<text x="667" y="85.8" fill="#000000" font-family="Verdana" font-size="12">entreprise_field</text>
	<text x="667" y="102.8" fill="#000000" font-family="Verdana" font-size="12">entreprise_about</text>
	<text x="667" y="119.8" fill="#000000" font-family="Verdana" font-size="12">entreprise_number_of_workers</text>
	<text x="667" y="136.8" fill="#000000" font-family="Verdana" font-size="12">entreprise_date_of_creation</text>
	<text x="667" y="153.8" fill="#000000" font-family="Verdana" font-size="12">entreprise_localisation</text>
	<text x="667" y="170.8" fill="#000000" font-family="Verdana" font-size="12">entreprise_desired_profiles</text>
	<text x="667" y="187.8" fill="#000000" font-family="Verdana" font-size="12">entreprise_average_age</text>
	<text x="667" y="204.8" fill="#000000" font-family="Verdana" font-size="12">entreprise_profile_picture</text>
	<text x="667" y="221.8" fill="#000000" font-family="Verdana" font-size="12">entreprise_cover_picture</text>
</g>

<!-- Entity CANDIDAT -->
<g>
	<g>
		<rect x="147" y="229" width="170" height="25" fill="#f4a582" stroke="none" stroke-width="0" opacity="1"/>
		<rect x="147" y="254" width="170" height="195" fill="#fddbc7" stroke="none" stroke-width="0" opacity="1"/>
		<rect x="147" y="229" width="170" height="220" fill="none" stroke="#d6604d" stroke-width="2" opacity="1"/>
		<line x1="147" y1="254" x2="317" y2="254" stroke="#d6604d" stroke-width="1"/>
	</g>
	<text x="199" y="246.75" fill="#000000" font-family="Verdana" font-size="12">CANDIDAT</text>
	<text x="152" y="271.8" fill="#000000" font-family="Verdana" font-size="12">candidate_id</text>
	<line x1="152" y1="274" x2="230" y2="274" stroke="#000000" stroke-width="1"/>
	<text x="152" y="288.8" fill="#000000" font-family="Verdana" font-size="12">candidate_first_name</text>
	<text x="152" y="305.8" fill="#000000" font-family="Verdana" font-size="12">candidate_last_name</text>
	<text x="152" y="322.8" fill="#000000" font-family="Verdana" font-size="12">candidate_sex</text>
	<text x="152" y="339.8" fill="#000000" font-family="Verdana" font-size="12">candidate_email</text>
	<text x="152" y="356.8" fill="#000000" font-family="Verdana" font-size="12">candidate_phone_number</text>
	<text x="152" y="373.8" fill="#000000" font-family="Verdana" font-size="12">candidate_localisation</text>
	<text x="152" y="390.8" fill="#000000" font-family="Verdana" font-size="12">candidate_about</text>
	<text x="152" y="407.8" fill="#000000" font-family="Verdana" font-size="12">candidate_profile_picture</text>
	<text x="152" y="424.8" fill="#000000" font-family="Verdana" font-size="12">candidate_cover_picture</text>
	<text x="152" y="441.8" fill="#000000" font-family="Verdana" font-size="12">candidate_status</text>
</g>

<!-- Entity COMPETENCE -->
<g>
	<g>
		<rect x="834" y="305" width="126" height="25" fill="#f4a582" stroke="none" stroke-width="0" opacity="1"/>
		<rect x="834" y="330" width="126" height="43" fill="#fddbc7" stroke="none" stroke-width="0" opacity="1"/>
		<rect x="834" y="305" width="126" height="68" fill="none" stroke="#d6604d" stroke-width="2" opacity="1"/>
		<line x1="834" y1="330" x2="960" y2="330" stroke="#d6604d" stroke-width="1"/>
	</g>
	<text x="855" y="322.75" fill="#000000" font-family="Verdana" font-size="12">COMPETENCE</text>
	<text x="839" y="347.8" fill="#000000" font-family="Verdana" font-size="12">competence_name</text>
	<line x1="839" y1="350" x2="954" y2="350" stroke="#000000" stroke-width="1"/>
	<text x="839" y="364.8" fill="#000000" font-family="Verdana" font-size="12">competence_icon</text>
</g>

<!-- Entity CERTIFICATION -->
<g>
	<g>
		<rect x="9" y="474" width="124" height="25" fill="#f4a582" stroke="none" stroke-width="0" opacity="1"/>
		<rect x="9" y="499" width="124" height="43" fill="#fddbc7" stroke="none" stroke-width="0" opacity="1"/>
		<rect x="9" y="474" width="124" height="68" fill="none" stroke="#d6604d" stroke-width="2" opacity="1"/>
		<line x1="9" y1="499" x2="133" y2="499" stroke="#d6604d" stroke-width="1"/>
	</g>
	<text x="23" y="491.75" fill="#000000" font-family="Verdana" font-size="12">CERTIFICATION</text>
	<text x="14" y="516.8" fill="#000000" font-family="Verdana" font-size="12">certification_name</text>
	<line x1="14" y1="519" x2="127" y2="519" stroke="#000000" stroke-width="1"/>
	<text x="14" y="533.8" fill="#000000" font-family="Verdana" font-size="12">certification_icon</text>
</g>

<!-- Entity PROFESSIONNAL_EXPERIENCE -->
<g>
	<g>
		<rect x="482" y="449" width="200" height="25" fill="#f4a582" stroke="none" stroke-width="0" opacity="1"/>
		<rect x="482" y="474" width="200" height="93" fill="#fddbc7" stroke="none" stroke-width="0" opacity="1"/>
		<rect x="482" y="449" width="200" height="118" fill="none" stroke="#d6604d" stroke-width="2" opacity="1"/>
		<line x1="482" y1="474" x2="682" y2="474" stroke="#d6604d" stroke-width="1"/>
	</g>
	<text x="488" y="466.75" fill="#000000" font-family="Verdana" font-size="12">PROFESSIONNAL_EXPERIENCE</text>
	<text x="487" y="491.8" fill="#000000" font-family="Verdana" font-size="12">experience_id</text>
	<line x1="487" y1="494" x2="572" y2="494" stroke="#000000" stroke-width="1"/>
	<text x="487" y="508.8" fill="#000000" font-family="Verdana" font-size="12">experience_start_date</text>
	<text x="487" y="525.8" fill="#000000" font-family="Verdana" font-size="12">experience_end_date</text>
	<text x="487" y="542.8" fill="#000000" font-family="Verdana" font-size="12">experience_job_title</text>
	<text x="487" y="559.8" fill="#000000" font-family="Verdana" font-size="12">experience_description</text>
</g>

<!-- Entity TOOL -->
<g>
	<g>
		<rect x="859" y="474" width="76" height="25" fill="#f4a582" stroke="none" stroke-width="0" opacity="1"/>
		<rect x="859" y="499" width="76" height="43" fill="#fddbc7" stroke="none" stroke-width="0" opacity="1"/>
		<rect x="859" y="474" width="76" height="68" fill="none" stroke="#d6604d" stroke-width="2" opacity="1"/>
		<line x1="859" y1="499" x2="935" y2="499" stroke="#d6604d" stroke-width="1"/>
	</g>
	<text x="880" y="491.75" fill="#000000" font-family="Verdana" font-size="12">TOOL</text>
	<text x="864" y="516.8" fill="#000000" font-family="Verdana" font-size="12">tool_name</text>
	<line x1="864" y1="519" x2="929" y2="519" stroke="#000000" stroke-width="1"/>
	<text x="864" y="533.8" fill="#000000" font-family="Verdana" font-size="12">tool_icon</text>
</g>
</svg>